<svg width="16" height="16" viewBox="0 0 16 16" fill="none" xmlns="http://www.w3.org/2000/svg">
<path d="M15.3973 14.4933C13.9637 13.5053 13.6667 12.1127 13.6667 9.33333V7.66667C13.6667 4.908 11.6943 2.612 9.08301 2.106C9.23934 1.88767 9.33334 1.62233 9.33334 1.33333C9.33334 0.597 8.73634 0 8.00001 0C7.26368 0 6.66668 0.597 6.66668 1.33333C6.66668 1.62233 6.76068 1.88767 6.91701 2.106C4.30568 2.612 2.33334 4.908 2.33334 7.66667V9.33333C2.33334 12.1127 2.03634 13.5053 0.602677 14.4933C0.431344 14.6117 0.333344 14.8107 0.333344 15.0187C0.333344 15.3763 0.623677 15.6667 0.981677 15.6667H15.0183C15.3763 15.6667 15.6667 15.3763 15.6667 15.0187C15.6667 14.8107 15.5687 14.6117 15.3973 14.4933Z" fill="#029AAD"/>
</svg>
