<svg width="40" height="40" viewBox="0 0 40 40" fill="none" xmlns="http://www.w3.org/2000/svg">
<rect width="40" height="40" rx="10" fill="#DDEEF2"/>
<path d="M20 28.6667C19.542 28.6667 19.0757 28.6294 18.614 28.555L18.3333 28.51V26.795C18.3323 26.263 17.8613 25.6684 17.1873 25.6664C16.919 25.6664 16.6583 25.7647 16.4507 25.9434L15.0693 27.1314L14.8553 26.9734C14.1547 26.456 13.538 25.8384 13.0213 25.137L12.864 24.9237L14.0617 23.526C14.237 23.3227 14.3333 23.0624 14.3333 22.7934C14.3333 22.1724 13.8277 21.6667 13.2067 21.6667H11.49L11.4453 21.386C11.3707 20.9244 11.3333 20.458 11.3333 20C11.3333 19.542 11.3707 19.0757 11.445 18.614L11.49 18.3334H13.2067C13.8277 18.3334 14.3333 17.8277 14.3333 17.2067C14.3333 16.9377 14.237 16.6774 14.0623 16.4734L12.8643 15.0757L13.0217 14.8624C13.5383 14.161 14.155 13.5434 14.8557 13.026L15.0697 12.868L16.451 14.056C16.6587 14.2347 16.9193 14.333 17.1843 14.333C17.8617 14.331 18.3327 13.7364 18.3337 13.2037V11.49L18.6143 11.445C19.0757 11.3707 19.542 11.3334 20 11.3334C20.458 11.3334 20.9243 11.3707 21.386 11.445L21.6667 11.49V13.205C21.6677 13.737 22.1387 14.3317 22.8127 14.3337C23.081 14.3337 23.3417 14.2354 23.5493 14.0567L24.9307 12.8687L25.1447 13.0267C25.8453 13.544 26.462 14.1617 26.9787 14.863L27.136 15.0764L25.9383 16.474C25.763 16.6774 25.6667 16.9377 25.6667 17.2067C25.6667 17.8277 26.1723 18.3334 26.7933 18.3334H28.51L28.555 18.614C28.6293 19.0757 28.6667 19.542 28.6667 20C28.6667 20.458 28.6293 20.9244 28.555 21.386L28.51 21.6667H26.7933C26.1723 21.6667 25.6667 22.1724 25.6667 22.7934C25.6667 23.0624 25.763 23.3227 25.9377 23.5267L27.1357 24.9244L26.9783 25.1377C26.4617 25.839 25.845 26.4567 25.1443 26.974L24.9303 27.132L23.549 25.944C23.3417 25.765 23.081 25.6667 22.816 25.6667C22.1387 25.6687 21.6677 26.2634 21.6667 26.796V28.5104L21.386 28.5554C20.9243 28.6294 20.458 28.6667 20 28.6667ZM20 18C18.897 18 18 18.897 18 20C18 21.103 18.897 22 20 22C21.103 22 22 21.103 22 20C22 18.897 21.103 18 20 18Z" fill="#029AAD"/>
</svg>
